<svg width="512" height="512" viewBox="0 0 512 512" fill="none" xmlns="http://www.w3.org/2000/svg">
<rect width="512" height="512" rx="64" fill="#101B23"/>
<path d="M198 388C186.8 360.533 174.533 333.2 161.2 306C148.133 278.533 134 251.067 118.8 223.6V388H74.4V140.4H114C121.467 152.133 128.933 164.933 136.4 178.8C143.867 192.4 151.067 206 158 219.6C165.2 233.2 171.733 246.4 177.6 259.2C183.733 272 188.933 283.2 193.2 292.8V140.4H237.6V388H198ZM396 388C393.067 378.667 388.8 368.667 383.2 358C377.867 347.067 371.867 336.533 365.2 326.4C358.533 316 351.467 306.4 344 297.6C336.8 288.533 329.867 280.933 323.2 274.8V388H274V140.4H323.2V243.2C329.067 235.733 335.2 227.467 341.6 218.4C348 209.333 354 200.267 359.6 191.2C365.467 182.133 370.8 173.2 375.6 164.4C380.4 155.6 384.4 147.6 387.6 140.4H443.2C439.467 147.6 434.933 155.867 429.6 165.2C424.533 174.267 418.667 183.867 412 194C405.333 203.867 398.133 214 390.4 224.4C382.933 234.8 375.067 244.8 366.8 254.4C375.067 262.4 383.467 271.6 392 282C400.533 292.4 408.533 303.6 416 315.6C423.733 327.333 430.667 339.467 436.8 352C442.933 364.267 447.867 376.267 451.6 388H396Z" fill="#96B2CF"/>
</svg>
